<svg xmlns="http://www.w3.org/2000/svg" width="306" height="109.031" viewBox="0 0 306 109.031">
  <defs>
    <style>
      .cls-1 {
        fill: #fff;
        fill-rule: evenodd;
      }
    </style>
  </defs>
  <path id="logo" class="cls-1" d="M137.652,87.165a9.594,9.594,0,0,0,5.638,2.025c3.008,0,4.041-1.7,4.041-5.746V65.313h6.062V84.151c0,7.348-3.43,10.55-9.585,10.55a12.48,12.48,0,0,1-6.156-1.648V87.165ZM177.9,65.313l4.98,19.451,4.746-19.451h5.919L186.028,94.23h-5.5l-5.075-19.074L170.383,94.23h-5.5l-7.516-28.918h6.06l4.7,19.451L173.2,65.313h4.7Zm23.941,17.332V94.23H198.13V65.313H208.8c5.827,0,9.632,2.966,9.632,8.664,0,5.653-3.8,8.666-9.632,8.666h-6.953Zm6.906-14.082h-6.906V79.347h6.906c3.9,0,6.015-2.119,6.015-5.369,0-3.3-2.114-5.416-6.015-5.416M223.7,65.313h3.711V90.886h14.707V94.23H223.7V65.313Zm30.87,0L265.848,94.23h-3.759l-3.337-8.714H246.866l-3.289,8.714h-3.76L251.1,65.313h3.476Zm-6.484,16.956h9.4l-4.7-12.34Zm36.039-16.955h3.946l-10.523,17V94.23h-3.666V82.314l-10.43-17h4.04l8.316,13.658Zm25.326,0v3.3H294.746v9.137H308.09v3.3H294.746v9.844h14.706V94.23H291.081V65.313h18.371Zm8.93,16.672V94.23h-3.713V65.313H325.24c5.827,0,9.587,2.92,9.587,8.383,0,4.8-2.82,7.488-7.378,8.148L336,94.23h-4.228L323.5,81.985h-5.121Zm0-3.156h6.766c3.8,0,6.014-1.93,6.014-5.133s-2.209-5.134-6.014-5.134h-6.766V78.829Zm-278.94-.935c-0.266.877-.672,0.868-0.9-0.018l-0.433-1.561S37.52,74.056,36.521,71.4a7.623,7.623,0,0,0-1.187-2.445,3.054,3.054,0,0,0-5.307,1.69,12.047,12.047,0,0,0,.259,2.961c0.412,2.951,2.535,14.6,3.842,17.123,1.285,2.478,4.1,3.857,6.723,2.469,2.428-1.287,3.564-4.3,4.556-6.695,1.252-3.009,7.528-20.381,7.528-20.381,0.623-1.725,1.1-1.635,1.072.2,0,0-.309,17.011-0.365,24.77-0.022,2.881.205,8.1,1.026,10.879a9.035,9.035,0,0,0,3.054,4.75,7.355,7.355,0,0,0,5.254,1.445,8.4,8.4,0,0,0,2.63-.872,10.144,10.144,0,0,0,2.983-2.657A46.487,46.487,0,0,0,73.213,96.8c3.041-6,10.868-24.5,10.868-24.5,0.713-1.687,1.251-1.57,1.195.262,0,0-.962,31.129-1,43.04a23.768,23.768,0,0,0,1.627,8.653,10.616,10.616,0,0,0,5.373,5.962,9.418,9.418,0,0,0,8.528-.467,13.731,13.731,0,0,0,4.721-4.907,52.724,52.724,0,0,0,4-8.576c2.369-6.121,4.32-12.4,6.256-18.671s18.545-65.713,19.59-70.786a5.124,5.124,0,0,0,.15-1.735,3.521,3.521,0,0,0-1.948-2.748,3.73,3.73,0,0,0-4.893,1.764c-0.911,1.849-23.608,57-23.608,57-0.7,1.694-1.264,1.581-1.26-.252,0,0,.042-19.162.135-35.039,0.049-8.612-4.185-13.425-10.1-14.385a11.067,11.067,0,0,0-7.852,1.751,17.309,17.309,0,0,0-5.575,6.611c-1.825,3.486-12.9,36.021-12.9,36.021-0.59,1.735-1.107,1.655-1.149-.177,0,0-.322-13.988-0.641-17.295-0.486-5.05-1.637-13.4-8.181-13.79C50.388,44.161,47.661,51.7,46.078,56.4c-1.037,3.078-6.166,19.951-6.166,19.951Z" transform="translate(-30 -22)"/>
</svg>
