<svg xmlns="http://www.w3.org/2000/svg" width="321" height="321" viewBox="0 0 321 321">
  <defs>
    <style>
      .cls-1 {
        fill: #fff;
        fill-rule: evenodd;
      }
    </style>
  </defs>
  <path id="vector_icon" data-name="vector icon" class="cls-1" d="M242.5,125.049A144.451,144.451,0,1,1,98.05,269.5,144.359,144.359,0,0,1,242.5,125.049m0-16.049A160.5,160.5,0,1,0,403,269.5,160.456,160.456,0,0,0,242.5,109h0Zm5.216,143.648a8.014,8.014,0,0,0-10.834,0L210.4,277.124a6.552,6.552,0,0,0,0,9.63,8.014,8.014,0,0,0,10.834,0l12.84-11.636v63.8a8.475,8.475,0,0,0,8.426,8.426,8.754,8.754,0,0,0,8.427-8.426v-63.8l12.839,11.636a8.014,8.014,0,0,0,10.834,0,6.552,6.552,0,0,0,0-9.63Zm67.009,2.808v-0.4A40.076,40.076,0,0,0,275,215.331a35.473,35.473,0,0,0-13.241,2.809c-8.025-16.05-24.075-26.883-42.533-26.883a48.034,48.034,0,0,0-48.15,48.149v1.2c-18.457,4.013-32.5,19.662-32.5,39.322A40.243,40.243,0,0,0,178.7,320.057h40.125V308.02H178.3a27.916,27.916,0,0,1-5.216-55.372l9.63-2.007V239.808A35.961,35.961,0,0,1,218.826,203.7c13.643,0,25.68,7.622,32.1,20.061l4.814,10.032,10.432-4.013A22.9,22.9,0,0,1,275,228.171a27.742,27.742,0,0,1,27.686,27.687V268.3h12.038c11.235,0,20.464,9.229,20.464,20.062a19.868,19.868,0,0,1-20.063,20.063H303.089v0.4H266.976v12.036h48.15v-0.4a31.938,31.938,0,0,0,32.1-32.1C346.825,270.3,332.38,255.456,314.725,255.456Z" transform="translate(-82 -109)"/>
</svg>
